{
  "accessors": [
    {
      "bufferView": 2,
      "componentType": 5126,
      "count": 65532,
      "max": [
        7.8016476631164551,
        9.1555070877075195,
        4.5084896087646484
      ],
      "min": [
        -12.09776782989502,
        -8.5266189575195312,
        0.4594268798828125
      ],
      "type": "VEC3"
    },
    {
      "bufferView": 2,
      "byteOffset": 786384,
      "componentType": 5126,
      "count": 65532,
      "max": [
        0.99999046325683594,
        0.99978172779083252,
        0.99999856948852539
      ],
      "min": [
        -0.99978208541870117,
        -0.99979603290557861,
        -0.9979323148727417
      ],
      "type": "VEC3"
    },
    {
      "bufferView": 3,
      "componentType": 5126,
      "count": 65532,
      "max": [
        0.97254902124404907,
        0.93725490570068359,
        0.81960785388946533,
        1
      ],
      "min": [
        0,
        0,
        0,
        1
      ],
      "type": "VEC4"
    },
    {
      "bufferView": 1,
      "componentType": 5126,
      "count": 65532,
      "max": [
        0.99960929155349731,
        0.34825873374938965
      ],
      "min": [
        0.0001829732209444046,
        0.00054401159286499023
      ],
      "type": "VEC2"
    },
    {
      "bufferView": 3,
      "byteOffset": 1048512,
      "componentType": 5126,
      "count": 65532,
      "max": [
        1,
        0.99838191270828247,
        1,
        -1
      ],
      "min": [
        -0.99999994039535522,
        -0.99978935718536377,
        -1,
        -1
      ],
      "type": "VEC4"
    },
    {
      "bufferView": 0,
      "componentType": 5125,
      "count": 65532,
      "max": [
        65531
      ],
      "min": [
        0
      ],
      "type": "SCALAR"
    },
    {
      "bufferView": 2,
      "byteOffset": 1572768,
      "componentType": 5126,
      "count": 65532,
      "max": [
        3.0601811408996582,
        6.6484746932983398,
        4.0871219635009766
      ],
      "min": [
        -12.018514633178711,
        -6.1233348846435547,
        0.62602996826171875
      ],
      "type": "VEC3"
    },
    {
      "bufferView": 2,
      "byteOffset": 2359152,
      "componentType": 5126,
      "count": 65532,
      "max": [
        0.99999910593032837,
        0.99997597932815552,
        0.99999862909317017
      ],
      "min": [
        -0.99997466802597046,
        -0.99973118305206299,
        -0.99959641695022583
      ],
      "type": "VEC3"
    },
    {
      "bufferView": 3,
      "byteOffset": 2097024,
      "componentType": 5126,
      "count": 65532,
      "max": [
        0.97254902124404907,
        0.91372549533843994,
        0.68627452850341797,
        1
      ],
      "min": [
        0,
        0,
        0,
        1
      ],
      "type": "VEC4"
    },
    {
      "bufferView": 1,
      "byteOffset": 524256,
      "componentType": 5126,
      "count": 65532,
      "max": [
        0.99974793195724487,
        0.34823828935623169
      ],
      "min": [
        0.00018546357750892639,
        0.00024110078811645508
      ],
      "type": "VEC2"
    },
    {
      "bufferView": 3,
      "byteOffset": 3145536,
      "componentType": 5126,
      "count": 65532,
      "max": [
        1,
        0.99600601196289062,
        0.99999994039535522,
        -1
      ],
      "min": [
        -1,
        -0.99990880489349365,
        -1,
        -1
      ],
      "type": "VEC4"
    },
    {
      "bufferView": 0,
      "byteOffset": 262128,
      "componentType": 5125,
      "count": 65532,
      "max": [
        65531
      ],
      "min": [
        0
      ],
      "type": "SCALAR"
    },
    {
      "bufferView": 2,
      "byteOffset": 3145536,
      "componentType": 5126,
      "count": 65532,
      "max": [
        8.7473440170288086,
        7.0861978530883789,
        4.5870294570922852
      ],
      "min": [
        -12.094307899475098,
        -5.7458176612854004,
        0.446563720703125
      ],
      "type": "VEC3"
    },
    {
      "bufferView": 2,
      "byteOffset": 3931920,
      "componentType": 5126,
      "count": 65532,
      "max": [
        0.99990856647491455,
        0.99992233514785767,
        0.99999946355819702
      ],
      "min": [
        -0.99997997283935547,
        -0.99985373020172119,
        -0.99992549419403076
      ],
      "type": "VEC3"
    },
    {
      "bufferView": 3,
      "byteOffset": 4194048,
      "componentType": 5126,
      "count": 65532,
      "max": [
        0.92549020051956177,
        0.85490196943283081,
        0.70588237047195435,
        1
      ],
      "min": [
        0.031372550874948502,
        0.031372550874948502,
        0,
        1
      ],
      "type": "VEC4"
    },
    {
      "bufferView": 1,
      "byteOffset": 1048512,
      "componentType": 5126,
      "count": 65532,
      "max": [
        0.99963164329528809,
        0.34824568033218384
      ],
      "min": [
        0.0001316070556640625,
        0.010943233966827393
      ],
      "type": "VEC2"
    },
    {
      "bufferView": 3,
      "byteOffset": 5242560,
      "componentType": 5126,
      "count": 65532,
      "max": [
        1,
        0.99899405241012573,
        1,
        -1
      ],
      "min": [
        -0.99999904632568359,
        -0.99998396635055542,
        -1,
        -1
      ],
      "type": "VEC4"
    },
    {
      "bufferView": 0,
      "byteOffset": 524256,
      "componentType": 5125,
      "count": 65532,
      "max": [
        65531
      ],
      "min": [
        0
      ],
      "type": "SCALAR"
    },
    {
      "bufferView": 2,
      "byteOffset": 4718304,
      "componentType": 5126,
      "count": 65532,
      "max": [
        8.7473440170288086,
        7.2785921096801758,
        4.5870294570922852
      ],
      "min": [
        -11.232949256896973,
        -0.79188668727874756,
        0.45554924011230469
      ],
      "type": "VEC3"
    },
    {
      "bufferView": 2,
      "byteOffset": 5504688,
      "componentType": 5126,
      "count": 65532,
      "max": [
        0.9999890923500061,
        0.99907630681991577,
        0.99999946355819702
      ],
      "min": [
        -0.99984025955200195,
        -0.99958205223083496,
        -0.99531370401382446
      ],
      "type": "VEC3"
    },
    {
      "bufferView": 3,
      "byteOffset": 6291072,
      "componentType": 5126,
      "count": 65532,
      "max": [
        0.99607843160629272,
        0.93333333730697632,
        0.82745099067687988,
        1
      ],
      "min": [
        0.015686275437474251,
        0.019607843831181526,
        0,
        1
      ],
      "type": "VEC4"
    },
    {
      "bufferView": 1,
      "byteOffset": 1572768,
      "componentType": 5126,
      "count": 65532,
      "max": [
        0.99731552600860596,
        0.34826600551605225
      ],
      "min": [
        0.0004765242338180542,
        0.011568129062652588
      ],
      "type": "VEC2"
    },
    {
      "bufferView": 3,
      "byteOffset": 7339584,
      "componentType": 5126,
      "count": 65532,
      "max": [
        1,
        0.9953773021697998,
        1,
        -1
      ],
      "min": [
        -0.99999994039535522,
        -0.99993610382080078,
        -1,
        -1
      ],
      "type": "VEC4"
    },
    {
      "bufferView": 0,
      "byteOffset": 786384,
      "componentType": 5125,
      "count": 65532,
      "max": [
        65531
      ],
      "min": [
        0
      ],
      "type": "SCALAR"
    },
    {
      "bufferView": 2,
      "byteOffset": 6291072,
      "componentType": 5126,
      "count": 65532,
      "max": [
        6.5182538032531738,
        9.1758279800415039,
        4.5732669830322266
      ],
      "min": [
        -11.232949256896973,
        -7.3903894424438477,
        0.49713706970214844
      ],
      "type": "VEC3"
    },
    {
      "bufferView": 2,
      "byteOffset": 7077456,
      "componentType": 5126,
      "count": 65532,
      "max": [
        0.99991011619567871,
        0.9999314546585083,
        0.99999886751174927
      ],
      "min": [
        -0.99977195262908936,
        -0.99998211860656738,
        -0.99883711338043213
      ],
      "type": "VEC3"
    },
    {
      "bufferView": 3,
      "byteOffset": 8388096,
      "componentType": 5126,
      "count": 65532,
      "max": [
        0.99607843160629272,
        0.93333333730697632,
        0.82745099067687988,
        1
      ],
      "min": [
        0.043137256056070328,
        0.039215687662363052,
        0,
        1
      ],
      "type": "VEC4"
    },
    {
      "bufferView": 1,
      "byteOffset": 2097024,
      "componentType": 5126,
      "count": 65532,
      "max": [
        0.9984736442565918,
        0.34822434186935425
      ],
      "min": [
        0.00017128884792327881,
        0.00021708011627197266
      ],
      "type": "VEC2"
    },
    {
      "bufferView": 3,
      "byteOffset": 9436608,
      "componentType": 5126,
      "count": 65532,
      "max": [
        1,
        0.98370486497879028,
        1,
        -1
      ],
      "min": [
        -1,
        -0.99979233741760254,
        -0.99999278783798218,
        -1
      ],
      "type": "VEC4"
    },
    {
      "bufferView": 0,
      "byteOffset": 1048512,
      "componentType": 5125,
      "count": 65532,
      "max": [
        65531
      ],
      "min": [
        0
      ],
      "type": "SCALAR"
    },
    {
      "bufferView": 2,
      "byteOffset": 7863840,
      "componentType": 5126,
      "count": 65532,
      "max": [
        8.2489547729492188,
        3.3468658924102783,
        4.5468101501464844
      ],
      "min": [
        -9.1280145645141602,
        -7.3903894424438477,
        0.58794689178466797
      ],
      "type": "VEC3"
    },
    {
      "bufferView": 2,
      "byteOffset": 8650224,
      "componentType": 5126,
      "count": 65532,
      "max": [
        0.99991828203201294,
        0.99986296892166138,
        0.99999850988388062
      ],
      "min": [
        -0.99883604049682617,
        -0.99998122453689575,
        -0.99984264373779297
      ],
      "type": "VEC3"
    },
    {
      "bufferView": 3,
      "byteOffset": 10485120,
      "componentType": 5126,
      "count": 65532,
      "max": [
        0.99215686321258545,
        0.94117647409439087,
        0.83921569585800171,
        1
      ],
      "min": [
        0.019607843831181526,
        0.015686275437474251,
        0,
        1
      ],
      "type": "VEC4"
    },
    {
      "bufferView": 1,
      "byteOffset": 2621280,
      "componentType": 5126,
      "count": 65532,
      "max": [
        0.99956822395324707,
        0.34869843721389771
      ],
      "min": [
        0.00017657876014709473,
        0.051055550575256348
      ],
      "type": "VEC2"
    },
    {
      "bufferView": 3,
      "byteOffset": 11533632,
      "componentType": 5126,
      "count": 65532,
      "max": [
        1,
        0.99890756607055664,
        0.99999994039535522,
        -1
      ],
      "min": [
        -1,
        -0.99221163988113403,
        -1,
        -1
      ],
      "type": "VEC4"
    },
    {
      "bufferView": 0,
      "byteOffset": 1310640,
      "componentType": 5125,
      "count": 65532,
      "max": [
        65531
      ],
      "min": [
        0
      ],
      "type": "SCALAR"
    },
    {
      "bufferView": 2,
      "byteOffset": 9436608,
      "componentType": 5126,
      "count": 65532,
      "max": [
        8.2721099853515625,
        3.5845563411712646,
        4.5470905303955078
      ],
      "min": [
        -3.2797136306762695,
        -6.1094532012939453,
        0.56044769287109375
      ],
      "type": "VEC3"
    },
    {
      "bufferView": 2,
      "byteOffset": 10222992,
      "componentType": 5126,
      "count": 65532,
      "max": [
        0.99996566772460938,
        0.99973165988922119,
        0.99999779462814331
      ],
      "min": [
        -0.99946576356887817,
        -0.99993228912353516,
        -0.99994373321533203
      ],
      "type": "VEC3"
    },
    {
      "bufferView": 3,
      "byteOffset": 12582144,
      "componentType": 5126,
      "count": 65532,
      "max": [
        0.9686274528503418,
        0.92549020051956177,
        0.81176471710205078,
        1
      ],
      "min": [
        0.019607843831181526,
        0.015686275437474251,
        0,
        1
      ],
      "type": "VEC4"
    },
    {
      "bufferView": 1,
      "byteOffset": 3145536,
      "componentType": 5126,
      "count": 65532,
      "max": [
        0.99981296062469482,
        0.34819644689559937
      ],
      "min": [
        0.00022624433040618896,
        0.050400376319885254
      ],
      "type": "VEC2"
    },
    {
      "bufferView": 3,
      "byteOffset": 13630656,
      "componentType": 5126,
      "count": 65532,
      "max": [
        1,
        0.99994713068008423,
        1,
        -1
      ],
      "min": [
        -1,
        -0.9939846396446228,
        -1,
        -1
      ],
      "type": "VEC4"
    },
    {
      "bufferView": 0,
      "byteOffset": 1572768,
      "componentType": 5125,
      "count": 65532,
      "max": [
        65531
      ],
      "min": [
        0
      ],
      "type": "SCALAR"
    },
    {
      "bufferView": 2,
      "byteOffset": 11009376,
      "componentType": 5126,
      "count": 15126,
      "max": [
        3.5608649253845215,
        -0.67509317398071289,
        3.4990768432617188
      ],
      "min": [
        -3.2527432441711426,
        -6.1001958847045898,
        0.65344047546386719
      ],
      "type": "VEC3"
    },
    {
      "bufferView": 2,
      "byteOffset": 11190888,
      "componentType": 5126,
      "count": 15126,
      "max": [
        0.99855422973632812,
        0.99782460927963257,
        0.9999735951423645
      ],
      "min": [
        -0.99947065114974976,
        -0.99950176477432251,
        -0.98013710975646973
      ],
      "type": "VEC3"
    },
    {
      "bufferView": 3,
      "byteOffset": 14679168,
      "componentType": 5126,
      "count": 15126,
      "max": [
        0.9686274528503418,
        0.89411765336990356,
        0.76470589637756348,
        1
      ],
      "min": [
        0.035294119268655777,
        0.035294119268655777,
        0,
        1
      ],
      "type": "VEC4"
    },
    {
      "bufferView": 1,
      "byteOffset": 3669792,
      "componentType": 5126,
      "count": 15126,
      "max": [
        0.9997255802154541,
        0.3481982946395874
      ],
      "min": [
        0.0018537938594818115,
        0.11572891473770142
      ],
      "type": "VEC2"
    },
    {
      "bufferView": 3,
      "byteOffset": 14921184,
      "componentType": 5126,
      "count": 15126,
      "max": [
        1,
        0.96584653854370117,
        0.99999946355819702,
        -1
      ],
      "min": [
        -0.99999606609344482,
        -0.92345333099365234,
        -0.99999934434890747,
        -1
      ],
      "type": "VEC4"
    },
    {
      "bufferView": 0,
      "byteOffset": 1834896,
      "componentType": 5125,
      "count": 15126,
      "max": [
        15125
      ],
      "min": [
        0
      ],
      "type": "SCALAR"
    }
  ],
  "asset": {
    "generator": "Sketchfab (OSG glTF plugin)",
    "version": "2.0"
  },
  "bufferViews": [
    {
      "buffer": 0,
      "byteLength": 1895400,
      "byteOffset": 0,
      "name": "ScalarBufferView",
      "target": 34963
    },
    {
      "buffer": 0,
      "byteLength": 3790800,
      "byteOffset": 1895400,
      "byteStride": 8,
      "name": "Vec3BufferView",
      "target": 34962
    },
    {
      "buffer": 0,
      "byteLength": 11372400,
      "byteOffset": 5686200,
      "byteStride": 12,
      "name": "Vec4BufferView",
      "target": 34962
    },
    {
      "buffer": 0,
      "byteLength": 15163200,
      "byteOffset": 17058600,
      "byteStride": 16,
      "name": "MatrixBufferView",
      "target": 34962
    }
  ],
  "buffers": [
    {
      "byteLength": 32221800,
      "uri": "scene.bin"
    }
  ],
  "extensionsRequired": [
    "KHR_materials_pbrSpecularGlossiness"
  ],
  "extensionsUsed": [
    "KHR_materials_pbrSpecularGlossiness"
  ],
  "images": [
    {
      "uri": "textures/Material_u1_v1_diffuse.jpg"
    }
  ],
  "materials": [
    {
      "doubleSided": true,
      "emissiveFactor": [
        0,
        0,
        0
      ],
      "extensions": {
        "KHR_materials_pbrSpecularGlossiness": {
          "diffuseFactor": [
            1,
            1,
            1,
            1
          ],
          "diffuseTexture": {
            "index": 0,
            "texCoord": 0
          },
          "glossinessFactor": 0,
          "specularFactor": [
            0.20000000000000001,
            0.20000000000000001,
            0.20000000000000001
          ]
        }
      },
      "name": "Material_u1_v1",
      "occlusionFactor": 1
    }
  ],
  "meshes": [
    {
      "name": "meshNode",
      "primitives": [
        {
          "attributes": {
            "COLOR_0": 2,
            "NORMAL": 1,
            "POSITION": 0,
            "TANGENT": 4,
            "TEXCOORD_0": 3
          },
          "indices": 5,
          "material": 0,
          "mode": 4
        },
        {
          "attributes": {
            "COLOR_0": 8,
            "NORMAL": 7,
            "POSITION": 6,
            "TANGENT": 10,
            "TEXCOORD_0": 9
          },
          "indices": 11,
          "material": 0,
          "mode": 4
        },
        {
          "attributes": {
            "COLOR_0": 14,
            "NORMAL": 13,
            "POSITION": 12,
            "TANGENT": 16,
            "TEXCOORD_0": 15
          },
          "indices": 17,
          "material": 0,
          "mode": 4
        },
        {
          "attributes": {
            "COLOR_0": 20,
            "NORMAL": 19,
            "POSITION": 18,
            "TANGENT": 22,
            "TEXCOORD_0": 21
          },
          "indices": 23,
          "material": 0,
          "mode": 4
        },
        {
          "attributes": {
            "COLOR_0": 26,
            "NORMAL": 25,
            "POSITION": 24,
            "TANGENT": 28,
            "TEXCOORD_0": 27
          },
          "indices": 29,
          "material": 0,
          "mode": 4
        },
        {
          "attributes": {
            "COLOR_0": 32,
            "NORMAL": 31,
            "POSITION": 30,
            "TANGENT": 34,
            "TEXCOORD_0": 33
          },
          "indices": 35,
          "material": 0,
          "mode": 4
        },
        {
          "attributes": {
            "COLOR_0": 38,
            "NORMAL": 37,
            "POSITION": 36,
            "TANGENT": 40,
            "TEXCOORD_0": 39
          },
          "indices": 41,
          "material": 0,
          "mode": 4
        },
        {
          "attributes": {
            "COLOR_0": 44,
            "NORMAL": 43,
            "POSITION": 42,
            "TANGENT": 46,
            "TEXCOORD_0": 45
          },
          "indices": 47,
          "material": 0,
          "mode": 4
        }
      ]
    }
  ],
  "nodes": [
    {
      "children": [
        1
      ],
      "name": "RootNode (gltf orientation matrix)",
      "rotation": [
        -0.70710678118654746,
        -0,
        -0,
        0.70710678118654757
      ]
    },
    {
      "children": [
        2
      ],
      "matrix": [
        -1,
        0,
        0,
        0,
        0,
        1,
        0,
        0,
        0,
        0,
        -1,
        0,
        0,
        0,
        0,
        1
      ],
      "name": "RootNode (model correction matrix)"
    },
    {
      "children": [
        3
      ],
      "matrix": [
        1,
        0,
        0,
        0,
        0,
        -1,
        0,
        0,
        0,
        0,
        -1,
        0,
        0,
        0,
        0,
        1
      ],
      "name": "ba70bb60a8d849ec9dcc3cfabd5ddc39.fbx"
    },
    {
      "children": [
        4
      ],
      "name": "RootNode"
    },
    {
      "children": [
        5
      ],
      "matrix": [
        -4.3711388064693324e-08,
        -0.999999999999999,
        0,
        0,
        0.999999999999999,
        -4.3711388064693324e-08,
        0,
        0,
        0,
        0,
        1,
        0,
        0,
        0,
        0,
        1
      ],
      "name": "meshNode"
    },
    {
      "children": [
        6
      ],
      "matrix": [
        -4.1059391453726084,
        -7.0531249107885401,
        0.27028248724252291,
        0,
        7.0577007164069849,
        -4.1066532325438949,
        0.050878003730114522,
        0,
        0.091983443541491128,
        0.2591914469275578,
        8.1610469662876159,
        0,
        -11.623804092407227,
        -10.967473030090332,
        -5.1342325210571289,
        1
      ],
      "name": ""
    },
    {
      "mesh": 0,
      "name": "meshNode"
    }
  ],
  "samplers": [
    {
      "magFilter": 9729,
      "minFilter": 9987,
      "wrapS": 10497,
      "wrapT": 10497
    }
  ],
  "scene": 0,
  "scenes": [
    {
      "name": "OSG_Scene",
      "nodes": [
        0
      ]
    }
  ],
  "textures": [
    {
      "sampler": 0,
      "source": 0
    }
  ]
}

